<svg width="166" height="26" viewBox="0 0 166 26" fill="none" xmlns="http://www.w3.org/2000/svg">
<path d="M12.1273 25.7806C4.04242 25.7527 0.22303 23.2436 0.418182 17.1661H7.36C7.44364 18.7552 8.78182 19.7309 12.1273 19.7588C15.0824 19.7867 16.4485 18.9503 16.4485 17.863C16.4485 17.1103 16.0303 16.3297 13.7442 15.9952L10.7333 15.5212C6.30061 14.7964 0.975758 14.2667 0.975758 8.27273C0.975758 3.64485 4.73939 0.80121 12.183 0.80121C18.9018 0.80121 23.5855 2.66909 23.4461 9.36H16.56C16.2812 7.79879 14.9709 6.82303 12.0158 6.82303C9.45091 6.82303 8.39152 7.60363 8.39152 8.66303C8.39152 9.33212 8.8097 10.1406 10.5939 10.4194L13.0752 10.8376C17.7309 11.6182 24.1152 11.7576 24.1152 18.1697C24.1152 23.2715 20.1564 25.8085 12.1273 25.7806ZM42.3875 1.58182H50.1099V25H42.3875V16.5248H33.299V25H25.5766V1.58182H33.299V10.057H42.3875V1.58182ZM64.9245 25.7806C56.8675 25.7806 51.6542 20.7903 51.6542 13.2909C51.6542 5.79151 56.8675 0.80121 64.9245 0.80121C72.9814 0.80121 78.1948 5.79151 78.1948 13.2909C78.1948 20.7903 72.9814 25.7806 64.9245 25.7806ZM64.9245 19.1176C67.9911 19.1176 70.5281 16.9988 70.5281 13.2909C70.5281 9.58303 67.9911 7.46424 64.9245 7.46424C61.8578 7.46424 59.3208 9.58303 59.3208 13.2909C59.3208 16.9988 61.8578 19.1176 64.9245 19.1176ZM79.7442 25V1.58182H93.0424C99.4267 1.58182 103.218 4.42545 103.218 10.7261C103.218 17.0267 99.4267 19.8703 93.0703 19.8703H87.4667V25H79.7442ZM87.4667 13.4582H92.3733C94.2412 13.4582 95.44 12.5382 95.44 10.7261C95.44 8.91394 94.2412 7.99394 92.4012 7.99394H87.4667V13.4582ZM107.082 25.4461C104.991 25.4461 103.234 23.7176 103.234 21.6545C103.234 19.5915 104.991 17.863 107.082 17.863C109.172 17.863 110.929 19.5915 110.929 21.6545C110.929 23.7176 109.172 25.4461 107.082 25.4461ZM125.613 25.7806C117.723 25.7806 112.454 20.7903 112.454 13.2909C112.454 5.79151 117.723 0.80121 125.613 0.80121C131.328 0.80121 137.182 3.3103 137.963 11.2279H130.603C129.962 8.66303 128.15 7.46424 125.613 7.46424C122.546 7.46424 120.121 9.7503 120.121 13.2909C120.121 16.8315 122.546 19.1176 125.613 19.1176C128.15 19.1176 129.962 17.9188 130.603 15.2982H137.963C137.182 23.2715 131.384 25.7806 125.613 25.7806ZM152.645 25.7806C144.588 25.7806 139.374 20.7903 139.374 13.2909C139.374 5.79151 144.588 0.80121 152.645 0.80121C160.702 0.80121 165.915 5.79151 165.915 13.2909C165.915 20.7903 160.702 25.7806 152.645 25.7806ZM152.645 19.1176C155.711 19.1176 158.248 16.9988 158.248 13.2909C158.248 9.58303 155.711 7.46424 152.645 7.46424C149.578 7.46424 147.041 9.58303 147.041 13.2909C147.041 16.9988 149.578 19.1176 152.645 19.1176Z" fill="black"/>
</svg>
